#!OML:ASF H:\BreakDance\Project 1\Capture day 1\Session 1\Male.ASF
:FULLY-SPECIFIED
:DEGREES
1243
root -5.75134 16.4274 -3.3222 -186.945 259.451 190.372
lowerback -2.40521 -0.718489 -7.21628
upperback 2.82531 -0.677358 0.458325
thorax 4.38674 -0.584864 4.48515
lowerneck -7.5437 1.72948 -7.17392
upperneck 201.174 -184.688 -188.407
head 187.902 -180.647 -181.197
rclavicle 4.4975e-015 1.2921e-015
rhumerus -21.3165 6.95857 -81.429
rradius 43.0806
rwrist 4.94252
rhand -22.1783 -400.404
rfingers 7.12502
rthumb 4.23664 -430.341
lclavicle 4.4975e-015 1.2921e-015
lhumerus -22.6262 9.96224 87.6311
lradius 49.2101
lwrist -9.45944
lhand -27.6488 333.38
lfingers 7.12502
lthumb -1.04673 3.35749
rfemur -14.3499 -1.85162 8.93783
rtibia 43.6397
rfoot -36.0681 -23.3495
rtoes 7.31262
lfemur -12.8968 -5.46239 -9.23639
ltibia 28.7951
lfoot -23.5696 17.6097
ltoes -38.6713
1244
root -5.76487 16.4247 -3.32479 -187.22 259.592 190.583
lowerback -2.51911 -0.670802 -7.20683
upperback 2.78499 -0.60529 0.454572
thorax 4.39938 -0.547614 4.48004
lowerneck -7.46929 1.76271 -7.13873
upperneck 201.055 -184.702 -188.35
head 187.846 -180.673 -181.182
rclavicle 1.59276e-014 -8.69683e-015
rhumerus -21.4372 6.88469 -81.4882
rradius 43.0348
rwrist 4.91976
rhand -22.1374 -400.657
rfingers 7.12502
rthumb 4.27613 -430.593
lclavicle 1.59276e-014 -8.69683e-015
lhumerus -22.7183 9.98085 87.4453
lradius 49.1891
lwrist -9.18158
lhand -28.0863 334.242
lfingers 7.12502
lthumb -1.46928 4.21622
rfemur -14.2819 -1.69953 8.95607
rtibia 43.6666
rfoot -36.1079 -23.4077
rtoes 7.15039
lfemur -12.6567 -5.79055 -9.26203
ltibia 28.713
lfoot -23.7472 17.9119
ltoes -38.5694
1245
root -5.77991 16.4219 -3.32688 -187.254 259.746 190.559
lowerback -2.66222 -0.632158 -7.17017
upperback 2.74067 -0.544817 0.468891
thorax 4.42577 -0.515862 4.47779
lowerneck -7.15425 1.72833 -6.99247
upperneck 200.693 -184.585 -188.448
head 187.67 -180.653 -181.247
rclavicle 5.33613e-015 1.04362e-014
rhumerus -21.5915 6.84217 -81.554
rradius 43.0477
rwrist 4.85298
rhand -22.1533 -400.781
rfingers 7.12502
rthumb 4.26078 -430.719
lclavicle 5.33613e-015 1.04362e-014
lhumerus -22.8009 9.96453 87.2585
lradius 49.1562
lwrist -8.88296
lhand -28.5685 334.966
lfingers 7.12502
lthumb -1.93496 4.93669
rfemur -14.218 -1.54044 9.02393
rtibia 43.6908
rfoot -36.1528 -23.4577
rtoes 7.00143
lfemur -12.4267 -6.08186 -9.24192
ltibia 28.6388
lfoot -23.9136 18.2253
ltoes -38.5321
1246
root -5.79597 16.419 -3.32832 -187.153 259.911 190.407
lowerback -2.82758 -0.605906 -7.12628
upperback 2.69557 -0.500105 0.499456
thorax 4.46623 -0.492435 4.48752
lowerneck -6.97149 1.75271 -6.92031
upperneck 200.446 -184.57 -188.457
head 187.555 -180.673 -181.262
rclavicle 3.71044e-014 -1.14301e-014
rhumerus -21.7659 6.83909 -81.621
rradius 43.119
rwrist 4.75377
rhand -22.1862 -400.808
rfingers 7.12502
rthumb 4.22898 -430.746
lclavicle 3.71044e-014 -1.14301e-014
lhumerus -22.8925 9.93157 87.0694
lradius 49.1386
lwrist -8.56754
lhand -29.0212 335.515
lfingers 7.12502
lthumb -2.37216 5.48184
rfemur -14.1612 -1.39102 9.1123
rtibia 43.7125
rfoot -36.1873 -23.4867
rtoes 6.8987
lfemur -12.2099 -6.3291 -9.19975
ltibia 28.5739
lfoot -24.0721 18.5328
ltoes -38.5071
1247
root -5.81252 16.416 -3.32927 -187.061 260.084 190.271
lowerback -3.0022 -0.588928 -7.09489
upperback 2.65184 -0.46681 0.536101
thorax 4.51523 -0.475549 4.51001
lowerneck -6.82032 1.79341 -6.87616
upperneck 200.218 -184.58 -188.427
head 187.451 -180.704 -181.257
rclavicle -2.49723e-015 -4.72114e-015
rhumerus -21.9488 6.8689 -81.6931
rradius 43.2376
rwrist 4.64058
rhand -22.2135 -400.782
rfingers 7.12502
rthumb 4.20261 -430.721
lclavicle -2.49723e-015 -4.72114e-015
lhumerus -23.0209 9.88973 86.8716
lradius 49.1667
lwrist -8.26874
lhand -29.3795 335.885
lfingers 7.12502
lthumb -2.71822 5.84791
rfemur -14.111 -1.24361 9.1936
rtibia 43.7336
rfoot -36.2074 -23.4975
rtoes 6.84464
lfemur -12.0017 -6.5234 -9.16196
ltibia 28.5155
lfoot -24.219 18.8095
ltoes -38.43
1248
root -5.82911 16.4135 -3.32988 -187.185 260.258 190.352
lowerback -3.1696 -0.581569 -7.10369
upperback 2.6096 -0.44481 0.565348
thorax 4.56382 -0.46554 4.54678
lowerneck -6.9592 1.92518 -6.99474
upperneck 200.272 -184.756 -188.179
head 187.487 -180.796 -181.141
rclavicle 2.38728e-014 2.38542e-015
rhumerus -22.1341 6.92672 -81.778
rradius 43.3799
rwrist 4.5496
rhand -22.2429 -400.719
rfingers 7.12502
rthumb 4.17418 -430.658
lclavicle 2.38728e-014 2.38542e-015
lhumerus -23.1985 9.84365 86.6587
lradius 49.2556
lwrist -8.01482
lhand -29.6026 336.107
lfingers 7.12502
lthumb -2.93365 6.06614
rfemur -14.0596 -1.09365 9.2297
rtibia 43.7541
rfoot -36.2207 -23.496
rtoes 6.78798
lfemur -11.7987 -6.66548 -9.16719
ltibia 28.4623
lfoot -24.3499 19.0453
ltoes -38.2804
